<?xml version="1.0" ?>

<!DOCTYPE svg  PUBLIC '-//W3C//DTD SVG 1.1//EN'  'http://www.w3.org/Graphics/SVG/1.1/DTD/svg11.dtd'>

<!-- Uploaded to: SVG Repo, www.svgrepo.com, Generator: SVG Repo Mixer Tools -->
<svg fill="#000000" width="800px" height="800px" viewBox="0 0 1069 1069" style="fill-rule:evenodd;clip-rule:evenodd;stroke-linejoin:round;stroke-miterlimit:2;" version="1.1" xml:space="preserve" xmlns="http://www.w3.org/2000/svg" xmlns:serif="http://www.serif.com/" xmlns:xlink="http://www.w3.org/1999/xlink">

<rect height="1066.67" id="Turn-table" style="fill:none;" width="1066.67" x="0.031" y="1.589"/>

<g>

<path d="M533.364,253.673c-155.226,-0 -281.25,126.024 -281.25,281.25c0,155.226 126.024,281.25 281.25,281.25c155.226,-0 281.25,-126.024 281.25,-281.25c0,-155.226 -126.024,-281.25 -281.25,-281.25Zm0,62.5c120.731,-0 218.75,98.018 218.75,218.75c0,120.731 -98.019,218.75 -218.75,218.75c-120.731,-0 -218.75,-98.019 -218.75,-218.75c0,-120.732 98.019,-218.75 218.75,-218.75Z" style="fill-opacity:0.5;"/>

<path d="M533.364,441.173c-51.742,-0 -93.75,42.008 -93.75,93.75c0,51.742 42.008,93.75 93.75,93.75c51.742,-0 93.75,-42.008 93.75,-93.75c0,-51.742 -42.008,-93.75 -93.75,-93.75Zm0,62.5c17.247,-0 31.25,14.002 31.25,31.25c0,17.247 -14.003,31.25 -31.25,31.25c-17.247,-0 -31.25,-14.003 -31.25,-31.25c0,-17.248 14.003,-31.25 31.25,-31.25Z"/>

<path d="M981.281,284.922c-0.001,-109.306 -88.611,-197.916 -197.917,-197.916c-145.235,0 -354.765,0 -500,0c-52.491,0 -102.832,20.852 -139.948,57.968c-37.117,37.117 -57.969,87.458 -57.969,139.949c0,145.234 0,354.765 0,500c0,109.306 88.61,197.916 197.917,197.916c114.831,0 261.544,0 346.724,0c53.127,0 104.024,-21.359 141.241,-59.273c44.362,-45.194 109.311,-111.359 153.275,-156.147c36.326,-37.006 56.677,-86.789 56.677,-138.644l-0,-343.853Zm-62.5,-0.002l-0,343.855c-0,35.479 -13.925,69.542 -38.779,94.862l-153.276,156.147c-25.463,25.94 -60.287,40.555 -96.636,40.555c-0.004,0 -346.726,0 -346.726,0c-74.79,-0.001 -135.417,-60.628 -135.417,-135.416c0,-145.235 0,-354.766 0,-500c0,-35.915 14.267,-70.359 39.663,-95.754c25.396,-25.396 59.839,-39.663 95.754,-39.663c145.235,0 354.765,0 500,0c74.788,0 135.415,60.627 135.417,135.414Z"/>

<path d="M386.267,637.826l-145.833,145.833c-12.196,12.196 -12.196,31.998 -0,44.194c12.195,12.196 31.998,12.196 44.194,0l145.833,-145.833c12.196,-12.196 12.196,-31.999 0,-44.194c-12.196,-12.196 -31.998,-12.196 -44.194,-0Z"/>

</g>

</svg>